<svg t="1712050752921" class="icon" viewBox="0 0 1024 1024" version="1.1" xmlns="http://www.w3.org/2000/svg" p-id="2578" width="200" height="200"><path d="M918.528 394.752c-59.904 83.456-215.04 140.288-391.168 140.288h-24.064c-176.128 0-328.704-56.832-391.168-140.288v152.064c59.904 83.456 215.04 146.432 391.168 146.432h24.064c182.272 0 331.776-56.832 391.168-146.432V394.752" p-id="2579"></path><path d="M526.848 66.048h-24.064c-182.272 0-331.776 44.544-391.168 116.736v128.512C171.52 376.832 326.656 424.96 502.784 424.96h24.064c176.128 0 334.336-45.056 391.168-113.664V182.784c-59.392-71.68-208.896-116.736-391.168-116.736m391.68 597.504c-59.904 83.456-215.04 140.288-391.168 140.288h-24.064c-176.128 0-328.704-56.832-391.168-140.288v152.064c59.904 83.456 215.04 146.432 391.168 146.432h24.064c182.272 0 331.776-56.832 391.168-146.432v-152.064c0 6.144 0 0 0 0" p-id="2580"></path></svg>